<svg id="Capa_1" enable-background="new 0 0 512 512" height="512" viewBox="0 0 512 512" width="512" xmlns="http://www.w3.org/2000/svg"><path d="m480.119 418.513v-260.785c0-12.965-10.511-23.476-23.476-23.476h-400.286c-12.965 0-23.476 10.51-23.476 23.476v260.786h447.238z" fill="#26a6fe"/><path d="m456.643 134.252h-30c12.965 0 23.476 10.51 23.476 23.476v260.786h30v-260.786c0-12.966-10.511-23.476-23.476-23.476z" fill="#0593fc"/><path d="m67.881 418.513v-235.987c0-7.331 5.943-13.274 13.274-13.274h349.69c7.331 0 13.274 5.943 13.274 13.274v235.987z" fill="#fff3ef"/><path d="m430.845 169.252h-30c7.331 0 13.274 5.943 13.274 13.274v235.987h30v-235.987c0-7.331-5.943-13.274-13.274-13.274z" fill="#d9e7ec"/><path d="m489.446 468.347h-466.892c-8.314 0-15.054-6.74-15.054-15.054v-34.809h497v34.809c0 8.314-6.74 15.054-15.054 15.054z" fill="#0593fc"/><path d="m474.5 418.484v34.809c0 8.314-6.74 15.054-15.054 15.054h30c8.314 0 15.054-6.74 15.054-15.054v-34.809z" fill="#0172fb"/><path d="m292.775 443.415h-73.55c-13.769 0-24.932-11.162-24.932-24.932h123.413c.001 13.77-11.162 24.932-24.931 24.932z" fill="#0055a3"/><path d="m254.645 43.653c-64.97 0-117.639 52.669-117.639 117.639v54.912c0 15.467 12.538 28.005 28.005 28.005h56.035l23.834 53.282c4.34 7.517 15.189 7.517 19.529 0l23.834-53.282h56.035c15.467 0 28.005-12.539 28.005-28.005v-54.911c.001-64.971-52.667-117.64-117.638-117.64z" fill="#fd6930"/><path d="m254.645 43.653c-5.082 0-10.088.323-15 .948 57.887 7.367 102.639 56.803 102.639 116.692v54.911c0 15.467-12.539 28.005-28.005 28.005h30c15.467 0 28.005-12.539 28.005-28.005v-54.911c0-64.971-52.668-117.64-117.639-117.64z" fill="#fd5426"/><path d="m327.168 349.495 5.578-11.189h36.369c-4.711-14.466-18.3-24.925-34.338-24.925-15.049 0-27.944 9.208-33.37 22.295h-86.813c-5.426-13.087-18.32-22.295-33.37-22.295-16.038 0-29.627 10.458-34.338 24.925h36.369l5.578 11.189-5.578 11.658h-36.21c4.85 14.222 18.315 24.455 34.179 24.455 15.288 0 28.348-9.505 33.617-22.923h86.318c5.27 13.418 18.329 22.923 33.617 22.923 15.864 0 29.329-10.233 34.179-24.455h-36.21z" fill="#d9e7ec"/><path d="m170.938 180.764h21.545v9.691c0 3.14 3.809 4.57 7.348 4.57s7.349-1.43 7.349-4.57v-9.691h3.856c2.307 0 4.57-3.364 4.57-6.792 0-4.667-2.369-6.793-4.57-6.793h-3.856v-6.357c0-2.065-1.925-4.477-7.349-4.477-5.423 0-7.348 2.412-7.348 4.477v6.357h-7.638l16.305-32.701c.245-.572.473-1.187.473-1.809 0-3.413-4.825-5.589-7.348-5.589-2.695 0-4.873 1.34-6.131 3.773l-21.391 41.947c-.658 1.207-.756 2.296-.756 2.838 0 3.066 1.985 5.126 4.941 5.126z"/><path d="m236.395 190.596c3.881 3.308 9.337 4.984 16.218 4.984 14.771 0 22.906-7.806 22.906-21.98v-24.54c0-14.174-8.135-21.98-22.906-21.98-6.881 0-12.337 1.677-16.218 4.984-4.377 3.73-6.596 9.448-6.596 16.996v24.541c0 7.547 2.219 13.265 6.596 16.995zm24.427-16.995c0 5.977-2.839 9.136-8.21 9.136-5.386 0-8.117-3.074-8.117-9.136v-24.541c0-6.062 2.731-9.135 8.117-9.135 5.371 0 8.21 3.159 8.21 9.135z"/><path d="m252.705 156.622c-3.035 0-4.848 1.777-4.848 4.755 0 2.945 1.902 4.848 4.848 4.848 2.889 0 4.755-1.903 4.755-4.848 0-2.933-1.822-4.755-4.755-4.755z"/><path d="m294.466 180.764h21.545v9.691c0 3.14 3.809 4.57 7.348 4.57s7.349-1.43 7.349-4.57v-9.691h3.857c2.306 0 4.569-3.364 4.569-6.792 0-4.667-2.368-6.793-4.569-6.793h-3.857v-6.357c0-2.065-1.925-4.477-7.349-4.477-5.423 0-7.348 2.412-7.348 4.477v6.357h-7.638l16.305-32.701c.245-.572.473-1.187.473-1.809 0-3.413-4.825-5.589-7.348-5.589-2.695 0-4.873 1.34-6.131 3.773l-21.391 41.947c-.657 1.207-.756 2.296-.756 2.838 0 3.066 1.986 5.126 4.941 5.126z"/><path d="m504.5 410.984h-16.881v-253.256c0-17.08-13.896-30.976-30.977-30.976h-79.079c-.879 0-1.719.159-2.503.437-14.884-52.48-63.231-91.036-120.415-91.036h-.001c-57.025 0-105.26 38.342-120.288 90.599h-78c-17.08 0-30.976 13.896-30.976 30.976v253.256h-17.88c-4.143 0-7.5 3.358-7.5 7.5v34.809c0 12.436 10.117 22.554 22.554 22.554h466.893c12.437 0 22.554-10.118 22.554-22.554v-34.809c-.001-4.142-3.358-7.5-7.501-7.5zm-47.857-269.232c8.81 0 15.977 7.167 15.977 15.976v253.256h-21v-228.458c0-11.455-9.319-20.774-20.774-20.774h-51.061v-.46c0-6.646-.526-13.171-1.529-19.54zm-312.137 19.54c0-60.73 49.408-110.139 110.14-110.139 60.73 0 110.139 49.408 110.139 110.139v54.912c0 11.307-9.198 20.505-20.505 20.505h-56.035c-2.957 0-5.639 1.738-6.847 4.438l-23.637 52.841c-.992 1.474-2.493 1.64-3.115 1.64s-2.123-.166-3.115-1.64l-23.637-52.841c-1.208-2.7-3.89-4.438-6.847-4.438h-56.035c-11.307 0-20.506-9.199-20.506-20.505zm-104.125-3.564c0-8.809 7.167-15.976 15.976-15.976h74.678c-1.003 6.369-1.529 12.894-1.529 19.54v.46h-48.351c-11.455 0-20.774 9.319-20.774 20.774v228.458h-20zm456.619 295.565c0 4.165-3.389 7.554-7.554 7.554h-466.892c-4.165 0-7.554-3.389-7.554-7.554v-27.309h101.715c4.143 0 7.5-3.358 7.5-7.5s-3.357-7.5-7.5-7.5h-41.334v-228.458c0-3.184 2.591-5.774 5.774-5.774h48.351v39.452c0 19.578 15.928 35.505 35.506 35.505h51.174l21.849 48.844c.105.235.223.464.352.688 3.394 5.878 9.472 9.388 16.26 9.388s12.866-3.509 16.26-9.388c.129-.223.246-.453.352-.688l21.849-48.844h51.174c19.577 0 35.505-15.928 35.505-35.505v-39.452h51.061c3.184 0 5.774 2.59 5.774 5.774v228.458h-118.916-123.412-47.579c-4.143 0-7.5 3.358-7.5 7.5s3.357 7.5 7.5 7.5h40.964c3.395 14.277 16.246 24.931 31.547 24.931h73.549c15.301 0 28.152-10.654 31.547-24.931h172.678zm-188.491-27.309c-2.809 5.868-8.806 9.931-15.734 9.931h-73.549c-6.929 0-12.926-4.063-15.734-9.931z"/><path d="m146.886 345.805h31.728l1.872 3.757-1.957 4.091h-31.483c-2.42 0-4.691 1.167-6.1 3.136-1.408 1.968-1.78 4.495-.999 6.785 6.024 17.666 22.612 29.535 41.277 29.535 16.293 0 30.857-8.844 38.399-22.923h76.754c7.542 14.079 22.106 22.923 38.399 22.923 18.665 0 35.253-11.869 41.277-29.535.781-2.29.409-4.817-.999-6.785s-3.68-3.136-6.1-3.136h-31.483l-1.957-4.091 1.872-3.757h31.728c2.401 0 4.658-1.15 6.069-3.094s1.806-4.445 1.062-6.729c-5.864-18.005-22.529-30.102-41.469-30.102-15.969 0-30.406 8.602-38.057 22.295h-42.074c-4.143 0-7.5 3.358-7.5 7.5s3.357 7.5 7.5 7.5h46.761c3.032 0 5.767-1.826 6.928-4.628 4.45-10.732 14.829-17.667 26.442-17.667 8.539 0 16.373 3.747 21.687 9.925h-23.718c-2.844 0-5.443 1.609-6.712 4.154l-5.577 11.189c-1.031 2.068-1.051 4.497-.054 6.582l5.577 11.659c1.246 2.605 3.878 4.264 6.766 4.264h23.287c-5.313 5.892-12.973 9.455-21.256 9.455-11.848 0-22.303-7.13-26.636-18.165-1.128-2.871-3.897-4.758-6.981-4.758h-86.318c-3.084 0-5.854 1.888-6.981 4.758-4.333 11.035-14.788 18.165-26.636 18.165-8.283 0-15.942-3.563-21.256-9.455h23.287c2.888 0 5.52-1.658 6.766-4.264l5.577-11.659c.997-2.085.978-4.514-.054-6.582l-5.577-11.189c-1.269-2.545-3.868-4.154-6.712-4.154h-23.719c5.313-6.178 13.148-9.925 21.688-9.925 11.613 0 21.992 6.935 26.442 17.667 1.161 2.802 3.896 4.628 6.928 4.628h10.052c4.143 0 7.5-3.358 7.5-7.5s-3.357-7.5-7.5-7.5h-5.365c-7.65-13.694-22.088-22.295-38.057-22.295-18.94 0-35.605 12.097-41.47 30.103-.743 2.284-.349 4.785 1.063 6.729s3.667 3.093 6.069 3.093z"/></svg>